<?xml version="1.0" encoding="UTF-8" standalone="no"?>
<!DOCTYPE svg PUBLIC "-//W3C//DTD SVG 1.1//EN" "http://www.w3.org/Graphics/SVG/1.1/DTD/svg11.dtd">
<svg width="100%" height="100%" viewBox="0 0 1080 1080" version="1.1" xmlns="http://www.w3.org/2000/svg" xmlns:xlink="http://www.w3.org/1999/xlink" xml:space="preserve" xmlns:serif="http://www.serif.com/" style="fill-rule:evenodd;clip-rule:evenodd;stroke-linejoin:round;stroke-miterlimit:2;">
    <g transform="matrix(1,0,0,1,-3540,0)">
        <g id="Favicon-SVG" transform="matrix(1,0,0,1,3540,0)">
            <rect x="0" y="0" width="1080" height="1080" style="fill:none;"/>
            <clipPath id="_clip1">
                <rect x="0" y="0" width="1080" height="1080"/>
            </clipPath>
            <g clip-path="url(#_clip1)">
                <g id="light-icon" transform="matrix(45,0,0,45,4.54747e-13,1.13687e-13)">
                    <rect x="0" y="0" width="24" height="24" style="fill:none;"/>
                    <g transform="matrix(0.025,0,0,0.025,0,24)">
                        <path d="M480,-260C530,-260 572.5,-277.5 607.5,-312.5C642.5,-347.5 660,-390 660,-440C660,-490 642.5,-532.5 607.5,-567.5C572.5,-602.5 530,-620 480,-620C430,-620 387.5,-602.5 352.5,-567.5C317.5,-532.5 300,-490 300,-440C300,-390 317.5,-347.5 352.5,-312.5C387.5,-277.5 430,-260 480,-260ZM480,-340C452,-340 428.333,-349.667 409,-369C389.667,-388.333 380,-412 380,-440C380,-468 389.667,-491.667 409,-511C428.333,-530.333 452,-540 480,-540C508,-540 531.667,-530.333 551,-511C570.333,-491.667 580,-468 580,-440C580,-412 570.333,-388.333 551,-369C531.667,-349.667 508,-340 480,-340ZM160,-120C138,-120 119.167,-127.833 103.5,-143.5C87.833,-159.167 80,-178 80,-200L80,-680C80,-702 87.833,-720.833 103.5,-736.5C119.167,-752.167 138,-760 160,-760L286,-760L360,-840L600,-840L674,-760L800,-760C822,-760 840.833,-752.167 856.5,-736.5C872.167,-720.833 880,-702 880,-680L880,-200C880,-178 872.167,-159.167 856.5,-143.5C840.833,-127.833 822,-120 800,-120L160,-120Z" style="fill:white;fill-rule:nonzero;"/>
                        <clipPath id="_clip2">
                            <path d="M480,-260C530,-260 572.5,-277.5 607.5,-312.5C642.5,-347.5 660,-390 660,-440C660,-490 642.5,-532.5 607.5,-567.5C572.5,-602.5 530,-620 480,-620C430,-620 387.5,-602.5 352.5,-567.5C317.5,-532.5 300,-490 300,-440C300,-390 317.5,-347.5 352.5,-312.5C387.5,-277.5 430,-260 480,-260ZM480,-340C452,-340 428.333,-349.667 409,-369C389.667,-388.333 380,-412 380,-440C380,-468 389.667,-491.667 409,-511C428.333,-530.333 452,-540 480,-540C508,-540 531.667,-530.333 551,-511C570.333,-491.667 580,-468 580,-440C580,-412 570.333,-388.333 551,-369C531.667,-349.667 508,-340 480,-340ZM160,-120C138,-120 119.167,-127.833 103.5,-143.5C87.833,-159.167 80,-178 80,-200L80,-680C80,-702 87.833,-720.833 103.5,-736.5C119.167,-752.167 138,-760 160,-760L286,-760L360,-840L600,-840L674,-760L800,-760C822,-760 840.833,-752.167 856.5,-736.5C872.167,-720.833 880,-702 880,-680L880,-200C880,-178 872.167,-159.167 856.5,-143.5C840.833,-127.833 822,-120 800,-120L160,-120Z" clip-rule="nonzero"/>
                        </clipPath>
                        <g clip-path="url(#_clip2)">
                            <g transform="matrix(0.921248,0,0,0.921248,-17.4737,-977.474)">
                                <rect x="0" y="0" width="1080" height="1080" style="fill:url(#_Linear3);"/>
                            </g>
                        </g>
                    </g>
                </g>
                <g id="dark-icon" transform="matrix(45,0,0,45,4.54747e-13,1.13687e-13)">
                    <rect x="0" y="0" width="24" height="24" style="fill:none;"/>
                    <g transform="matrix(0.025,0,0,0.025,0,24)">
                        <path d="M480,-260C530,-260 572.5,-277.5 607.5,-312.5C642.5,-347.5 660,-390 660,-440C660,-490 642.5,-532.5 607.5,-567.5C572.5,-602.5 530,-620 480,-620C430,-620 387.5,-602.5 352.5,-567.5C317.5,-532.5 300,-490 300,-440C300,-390 317.5,-347.5 352.5,-312.5C387.5,-277.5 430,-260 480,-260ZM480,-340C452,-340 428.333,-349.667 409,-369C389.667,-388.333 380,-412 380,-440C380,-468 389.667,-491.667 409,-511C428.333,-530.333 452,-540 480,-540C508,-540 531.667,-530.333 551,-511C570.333,-491.667 580,-468 580,-440C580,-412 570.333,-388.333 551,-369C531.667,-349.667 508,-340 480,-340ZM160,-120C138,-120 119.167,-127.833 103.5,-143.5C87.833,-159.167 80,-178 80,-200L80,-680C80,-702 87.833,-720.833 103.5,-736.5C119.167,-752.167 138,-760 160,-760L286,-760L360,-840L600,-840L674,-760L800,-760C822,-760 840.833,-752.167 856.5,-736.5C872.167,-720.833 880,-702 880,-680L880,-200C880,-178 872.167,-159.167 856.5,-143.5C840.833,-127.833 822,-120 800,-120L160,-120Z" style="fill:white;fill-rule:nonzero;"/>
                        <clipPath id="_clip4">
                            <path d="M480,-260C530,-260 572.5,-277.5 607.5,-312.5C642.5,-347.5 660,-390 660,-440C660,-490 642.5,-532.5 607.5,-567.5C572.5,-602.5 530,-620 480,-620C430,-620 387.5,-602.5 352.5,-567.5C317.5,-532.5 300,-490 300,-440C300,-390 317.5,-347.5 352.5,-312.5C387.5,-277.5 430,-260 480,-260ZM480,-340C452,-340 428.333,-349.667 409,-369C389.667,-388.333 380,-412 380,-440C380,-468 389.667,-491.667 409,-511C428.333,-530.333 452,-540 480,-540C508,-540 531.667,-530.333 551,-511C570.333,-491.667 580,-468 580,-440C580,-412 570.333,-388.333 551,-369C531.667,-349.667 508,-340 480,-340ZM160,-120C138,-120 119.167,-127.833 103.5,-143.5C87.833,-159.167 80,-178 80,-200L80,-680C80,-702 87.833,-720.833 103.5,-736.5C119.167,-752.167 138,-760 160,-760L286,-760L360,-840L600,-840L674,-760L800,-760C822,-760 840.833,-752.167 856.5,-736.5C872.167,-720.833 880,-702 880,-680L880,-200C880,-178 872.167,-159.167 856.5,-143.5C840.833,-127.833 822,-120 800,-120L160,-120Z" clip-rule="nonzero"/>
                        </clipPath>
                        <g clip-path="url(#_clip4)">
                            <g transform="matrix(0.921248,0,0,0.921248,-17.4737,-977.474)">
                                <rect x="0" y="0" width="1080" height="1080" style="fill:url(#_Linear5);"/>
                            </g>
                        </g>
                    </g>
                </g>
            </g>
        </g>
    </g>
    <defs>
        <linearGradient id="_Linear3" x1="0" y1="0" x2="1" y2="0" gradientUnits="userSpaceOnUse" gradientTransform="matrix(6.61309e-14,1080,-1080,6.61309e-14,540,0)"><stop offset="0" style="stop-color:rgb(176,0,135);stop-opacity:1"/><stop offset="1" style="stop-color:rgb(27,0,53);stop-opacity:1"/></linearGradient>
        <linearGradient id="_Linear5" x1="0" y1="0" x2="1" y2="0" gradientUnits="userSpaceOnUse" gradientTransform="matrix(6.61309e-14,1080,-1080,6.61309e-14,540,0)"><stop offset="0" style="stop-color:rgb(255,64,129);stop-opacity:1"/><stop offset="1" style="stop-color:rgb(176,0,135);stop-opacity:1"/></linearGradient>
    </defs>
</svg>
